<?xml version="1.0" standalone="no"?>
<!DOCTYPE svg PUBLIC "-//W3C//DTD SVG 20010904//EN"
 "http://www.w3.org/TR/2001/REC-SVG-20010904/DTD/svg10.dtd">
<svg version="1.0" xmlns="http://www.w3.org/2000/svg"
 width="400.000000pt" height="400.000000pt" viewBox="0 0 400.000000 400.000000"
 preserveAspectRatio="xMidYMid meet">
<metadata>
Created by potrace 1.14, written by Peter Selinger 2001-2017
</metadata>
<g transform="translate(0.000000,400.000000) scale(0.100000,-0.100000)"
fill="#000000" stroke="none">
<path d="M400 2587 c-162 -45 -301 -86 -307 -90 -16 -10 -17 -43 -2 -52 6 -4
56 -19 112 -34 l102 -28 6 -98 6 -98 39 -34 c50 -42 119 -68 223 -83 83 -13
290 -9 324 5 15 6 17 0 17 -53 0 -33 3 -67 6 -76 11 -29 50 -18 80 22 15 20
29 39 30 41 2 2 17 -8 34 -23 25 -21 35 -24 51 -16 18 10 19 23 19 210 l0 199
68 20 c37 11 86 25 110 31 45 12 62 32 46 58 -11 16 -600 182 -644 181 -14 0
-158 -37 -320 -82z m582 -49 c125 -35 225 -64 224 -65 -1 -2 -23 -9 -47 -16
-43 -13 -52 -12 -204 31 -183 51 -282 59 -328 29 -16 -11 -27 -26 -27 -41 0
-40 28 -56 184 -99 l48 -13 -55 -14 c-56 -13 -57 -13 -284 50 -125 35 -233 66
-240 69 -16 8 456 141 482 136 11 -3 122 -33 247 -67z m-113 -98 c103 -29 129
-40 98 -40 -17 0 -239 60 -246 66 -14 13 58 0 148 -26z m-300 -130 l153 -42
99 25 99 25 0 -89 c0 -49 -3 -89 -7 -89 -5 0 -50 -5 -101 -10 -162 -17 -359
17 -413 71 -15 15 -19 34 -19 90 0 62 2 70 18 65 9 -3 86 -24 171 -46z m511
-92 c0 -110 -3 -139 -12 -130 -19 19 -45 14 -63 -10 -14 -21 -15 -13 -13 122
l3 144 25 7 c62 17 60 22 60 -133z"/>
<path d="M428 2029 c-24 -13 -23 -36 2 -44 32 -10 23 -21 -14 -17 -28 3 -37
-1 -52 -23 -20 -31 -23 -100 -5 -133 13 -24 58 -31 78 -11 8 8 13 8 17 0 10
-15 51 -14 65 3 12 14 5 49 -8 41 -4 -2 -5 33 -3 79 4 68 1 85 -13 99 -19 19
-42 21 -67 6z m22 -130 c0 -17 -20 -49 -30 -49 -6 0 -10 14 -10 30 0 23 4 30
20 30 11 0 20 -5 20 -11z"/>
<path d="M1474 2025 c-19 -15 -19 -15 4 -34 29 -25 28 -28 -12 -23 -28 3 -37
-1 -51 -22 -19 -29 -22 -104 -5 -135 12 -23 58 -29 77 -10 8 8 13 8 17 0 10
-15 51 -14 65 3 12 14 5 49 -8 41 -4 -2 -6 31 -3 74 3 48 0 86 -7 99 -14 26
-49 29 -77 7z m26 -126 c0 -17 -20 -49 -30 -49 -6 0 -10 14 -10 30 0 23 4 30
20 30 11 0 20 -5 20 -11z"/>
<path d="M2252 2031 c-22 -14 -10 -46 19 -49 34 -4 57 22 39 43 -14 17 -38 19
-58 6z"/>
<path d="M193 2023 c-27 -4 -33 -9 -33 -29 0 -13 5 -24 10 -24 6 0 10 -25 10
-55 0 -30 -4 -55 -10 -55 -5 0 -10 -14 -10 -30 0 -34 23 -49 49 -33 11 7 23 8
34 1 10 -5 32 -8 50 -6 27 2 33 8 35 31 3 26 2 27 -42 27 -52 0 -63 17 -13 22
28 3 32 7 32 31 -1 15 2 27 6 27 4 0 12 15 18 33 11 28 9 34 -10 50 -21 16
-52 19 -126 10z m87 -62 c0 -5 3 -16 6 -25 4 -12 0 -16 -15 -16 -16 0 -21 6
-21 25 0 16 6 25 15 25 8 0 15 -4 15 -9z"/>
<path d="M1243 2023 c-27 -4 -33 -9 -33 -29 0 -13 5 -24 10 -24 6 0 10 -24 10
-54 0 -30 -4 -58 -10 -61 -16 -10 -11 -55 6 -62 9 -3 24 -1 34 5 10 6 22 7 31
1 27 -17 78 -10 89 11 16 30 4 40 -46 40 -51 0 -60 17 -11 22 28 3 32 7 32 31
-1 15 2 27 6 27 4 0 12 15 18 33 11 28 9 34 -10 50 -21 16 -52 19 -126 10z
m87 -62 c0 -5 3 -16 6 -25 4 -12 0 -16 -15 -16 -16 0 -21 6 -21 25 0 16 6 25
15 25 8 0 15 -4 15 -9z"/>
<path d="M643 1990 c-4 -15 -14 -20 -39 -20 -37 0 -74 -29 -74 -58 0 -10 7
-27 15 -39 8 -12 12 -29 9 -37 -8 -21 13 -46 40 -46 11 0 28 -5 36 -11 11 -8
6 -9 -20 -4 -60 12 -65 11 -68 -12 -4 -28 37 -47 79 -38 74 16 106 86 50 108
-28 10 -28 11 -9 27 11 9 21 29 22 45 2 17 6 43 11 59 5 20 4 31 -6 37 -23 14
-41 10 -46 -11z m-15 -87 c2 -8 -5 -13 -17 -13 -12 0 -21 6 -21 16 0 18 31 15
38 -3z"/>
<path d="M2142 1998 c-7 -7 -12 -16 -12 -21 0 -6 -8 -16 -17 -23 -15 -10 -16
-15 -5 -25 6 -7 12 -31 12 -53 0 -67 9 -86 39 -86 34 0 72 26 65 45 -4 8 -15
15 -26 15 -17 0 -19 4 -13 28 3 15 13 31 21 35 18 10 19 57 0 57 -7 0 -16 9
-19 20 -6 22 -27 26 -45 8z"/>
<path d="M735 1945 c-33 -32 -35 -101 -5 -133 36 -38 143 -20 127 22 -4 11
-15 13 -40 9 -20 -3 -37 -1 -41 6 -5 7 4 11 26 11 41 0 58 15 58 51 0 60 -78
81 -125 34z m62 -41 c-3 -3 -12 -4 -19 -1 -8 3 -5 6 6 6 11 1 17 -2 13 -5z"/>
<path d="M1587 1963 c-10 -9 -9 -43 2 -43 4 0 8 -24 7 -52 0 -29 3 -59 7 -65
12 -19 64 -16 75 3 8 15 10 15 15 0 8 -20 50 -21 66 -2 12 15 4 49 -10 40 -5
-3 -6 10 -2 28 11 54 9 80 -8 91 -22 14 -69 0 -70 -21 0 -13 -3 -11 -9 6 -7
15 -18 22 -38 22 -16 0 -32 -3 -35 -7z m103 -62 c0 -10 -8 -29 -18 -41 -18
-22 -18 -22 -14 19 3 27 9 41 18 41 8 0 14 -9 14 -19z"/>
<path d="M1807 1956 c-29 -22 -40 -70 -27 -111 13 -39 35 -55 75 -55 37 0 65
17 65 40 0 16 -6 19 -37 17 -36 -2 -38 0 -41 31 -2 24 1 32 12 32 9 0 16 -7
16 -16 0 -10 7 -14 22 -12 25 3 43 59 25 77 -15 15 -88 13 -110 -3z"/>
<path d="M1956 1957 c-15 -11 -16 -18 -8 -34 8 -15 18 -19 41 -15 19 2 31 0
31 -7 0 -6 -13 -11 -28 -11 -15 0 -33 -5 -40 -12 -16 -16 -15 -63 1 -76 18
-15 134 -13 147 3 12 14 3 48 -11 39 -5 -3 -6 15 -3 39 5 37 3 48 -15 66 -24
24 -87 29 -115 8z m64 -107 c0 -5 -4 -10 -10 -10 -5 0 -10 5 -10 10 0 6 5 10
10 10 6 0 10 -4 10 -10z"/>
<path d="M2243 1963 c-16 -6 -17 -43 -2 -43 8 0 9 -13 5 -40 -10 -62 1 -90 34
-90 15 0 33 7 40 15 14 17 5 50 -11 39 -7 -4 -9 0 -6 12 15 55 16 76 7 94 -10
19 -39 25 -67 13z"/>
<path d="M2365 1945 c-32 -31 -34 -91 -4 -129 16 -20 29 -26 59 -26 30 0 43 6
59 26 28 36 29 106 1 134 -29 29 -84 27 -115 -5z m70 -70 c0 -32 -19 -45 -29
-19 -9 22 3 56 17 51 7 -2 12 -16 12 -32z"/>
<path d="M2513 1954 c-3 -8 -1 -20 6 -27 6 -6 11 -39 11 -73 0 -51 3 -63 18
-66 36 -8 54 3 49 31 -5 22 16 81 28 81 2 0 2 -13 -1 -30 -11 -51 2 -80 35
-80 16 0 34 6 40 14 12 14 5 49 -9 41 -4 -2 -5 18 -2 45 5 56 -8 80 -44 80
-12 0 -29 -9 -37 -21 l-15 -21 -7 21 c-8 26 -62 30 -72 5z"/>
<path d="M2162 1588 c-39 -47 -78 -178 -53 -178 7 0 12 15 27 78 1 8 15 32 30
53 18 27 24 43 17 50 -7 7 -14 5 -21 -3z"/>
<path d="M1825 1538 c-31 -67 -41 -116 -26 -131 8 -8 11 -7 11 6 0 26 31 110
51 139 23 32 24 38 4 38 -9 0 -26 -22 -40 -52z"/>
<path d="M1514 1544 c-43 -103 -23 -168 43 -143 12 4 31 26 42 48 24 46 38
121 23 121 -5 0 -13 -25 -17 -55 -7 -63 -41 -113 -68 -102 -23 9 -21 52 3 106
24 52 24 47 4 55 -11 4 -19 -4 -30 -30z"/>
<path d="M2962 1570 c-24 -10 -39 -36 -27 -48 3 -4 11 1 16 11 6 9 14 17 19
17 5 0 -2 -28 -16 -62 -27 -70 -21 -88 30 -88 55 0 108 75 91 129 -6 21 -53
52 -77 50 -7 0 -23 -4 -36 -9z m88 -25 c29 -35 -19 -125 -67 -125 -29 0 -29
12 2 74 13 27 22 53 19 58 -9 15 33 8 46 -7z"/>
<path d="M3676 1511 c-9 -10 -14 -25 -10 -35 4 -10 -2 -23 -17 -34 -14 -12
-20 -25 -16 -35 15 -39 57 -2 57 50 0 27 3 34 15 29 19 -7 20 17 2 33 -11 8
-18 6 -31 -8z m-14 -93 c-7 -7 -12 -8 -12 -2 0 14 12 26 19 19 2 -3 -1 -11 -7
-17z"/>
<path d="M1667 1494 c-20 -41 -29 -82 -18 -89 10 -5 34 29 36 50 1 6 5 18 9
28 5 11 4 23 -2 29 -7 7 -15 2 -25 -18z"/>
<path d="M1890 1502 c-14 -11 -22 -30 -23 -52 -2 -29 2 -36 20 -38 26 -4 63
33 63 62 0 12 -9 27 -19 33 -16 10 -24 9 -41 -5z m40 -28 c0 -25 -19 -54 -36
-54 -11 0 -14 6 -8 23 13 42 44 65 44 31z"/>
<path d="M2005 1496 c-28 -28 -30 -38 -15 -67 12 -21 45 -26 56 -8 4 8 0 9
-15 4 -17 -5 -21 -2 -21 15 0 27 17 60 31 60 6 0 8 -7 5 -16 -4 -10 -1 -14 6
-12 19 7 16 42 -4 46 -10 2 -29 -8 -43 -22z"/>
<path d="M2154 1497 c-10 -12 -12 -16 -4 -9 25 21 34 13 12 -11 -19 -21 -21
-28 -11 -55 6 -18 17 -32 25 -32 18 0 18 5 -3 36 -16 25 -16 27 0 36 18 9 23
43 8 52 -4 3 -17 -4 -27 -17z"/>
<path d="M2338 1474 c-21 -49 -14 -72 19 -60 13 6 14 9 4 15 -10 7 -10 14 3
39 19 36 20 52 5 52 -5 0 -19 -21 -31 -46z"/>
<path d="M2482 1497 c-26 -28 -29 -75 -6 -84 38 -14 83 47 60 81 -19 29 -29
29 -54 3z m48 -20 c0 -17 -29 -57 -41 -57 -13 0 -11 27 3 50 14 22 38 27 38 7z"/>
<path d="M2588 1474 c-13 -32 -17 -49 -10 -56 12 -12 42 -3 42 12 0 6 -5 8
-11 4 -13 -8 -3 35 12 51 12 13 11 35 -2 35 -5 0 -19 -21 -31 -46z"/>
<path d="M2723 1488 c-22 -65 -24 -78 -13 -78 6 0 15 11 20 24 5 13 13 27 18
30 11 7 8 49 -4 53 -6 2 -15 -11 -21 -29z"/>
<path d="M3116 1474 c-9 -26 -16 -51 -16 -56 0 -33 53 42 54 76 1 38 -22 26
-38 -20z"/>
<path d="M3243 1498 c-30 -33 -37 -63 -18 -82 17 -17 47 -9 61 17 5 9 4 9 -7
0 -22 -22 -40 -16 -35 12 6 31 14 45 28 45 6 0 3 -9 -7 -20 -10 -11 -13 -20
-7 -20 6 0 19 12 28 26 15 22 15 27 3 35 -20 12 -23 12 -46 -13z"/>
<path d="M3467 1485 c-19 -39 -22 -75 -7 -75 11 0 34 38 36 60 1 8 3 21 5 29
8 30 -18 19 -34 -14z"/>
<path d="M1717 1490 c-15 -12 -27 -26 -27 -32 0 -7 4 -7 13 0 10 8 13 5 12
-15 0 -14 6 -28 14 -31 9 -3 12 0 8 10 -3 9 1 28 9 43 20 38 4 51 -29 25z"/>
<path d="M2391 1474 c-12 -19 -19 -39 -16 -44 9 -14 -40 -74 -65 -80 -22 -5
-23 -7 -7 -13 37 -14 76 23 106 103 12 30 21 58 21 63 0 18 -20 4 -39 -29z"/>
<path d="M2638 1477 c-11 -23 -13 -39 -6 -50 14 -26 25 -20 30 16 3 17 8 40
13 50 14 33 -21 18 -37 -16z"/>
<path d="M2767 1496 c-3 -8 1 -20 9 -26 12 -10 14 -8 14 14 0 28 -14 35 -23
12z"/>
<path d="M3164 1499 c-3 -6 1 -18 10 -27 15 -15 16 -14 16 11 0 27 -13 36 -26
16z"/>
<path d="M3340 1478 c-23 -38 -23 -38 -11 -57 10 -15 41 -8 41 9 0 6 -4 8 -10
5 -18 -11 -10 22 10 40 24 22 26 35 5 35 -8 0 -24 -15 -35 -32z"/>
<path d="M3514 1489 c-10 -13 -13 -19 -6 -15 15 9 15 5 2 -28 -5 -14 -6 -28
-1 -30 11 -7 38 25 38 44 0 8 2 21 4 29 7 23 -16 23 -37 0z"/>
<path d="M3569 1483 c-13 -14 -19 -23 -12 -19 8 4 11 -2 10 -21 -1 -17 3 -28
13 -30 10 -3 15 5 16 24 1 16 5 38 9 51 10 30 -6 28 -36 -5z"/>
<path d="M3387 1473 c-14 -28 -12 -63 2 -63 5 0 11 12 14 28 3 15 9 35 12 45
11 28 -13 20 -28 -10z"/>
<path d="M3736 1425 c-4 -12 -1 -16 11 -13 18 3 21 20 5 26 -5 1 -12 -4 -16
-13z"/>
<path d="M3810 1426 c0 -8 4 -17 9 -20 11 -7 33 18 24 27 -12 12 -33 7 -33 -7z"/>
<path d="M3886 1425 c-4 -12 -1 -16 11 -13 18 3 21 20 5 26 -5 1 -12 -4 -16
-13z"/>
</g>
</svg>
